<?xml version="1.0" encoding="iso-8859-1"?>
<!-- Uploaded to: SVG Repo, www.svgrepo.com, Generator: SVG Repo Mixer Tools -->
<svg fill="#000000" height="800px" width="800px" version="1.1" id="Layer_1" xmlns="http://www.w3.org/2000/svg" xmlns:xlink="http://www.w3.org/1999/xlink" 
	 viewBox="0 0 512 512" xml:space="preserve">
<g>
	<g>
		<circle cx="119.591" cy="137.679" r="12.145"/>
	</g>
</g>
<g>
	<g>
		<circle cx="224.921" cy="137.679" r="12.145"/>
	</g>
</g>
<g>
	<g>
		<path d="M221.881,180.329c-0.001-0.025-0.005-0.049-0.006-0.074c-0.295-22.931-22.482-41.543-49.617-41.543
			c-27.136,0-49.32,18.609-49.618,41.541c-0.001,0.029-0.006,0.058-0.006,0.088c-0.004,0.121-0.007,0.277-0.007,0.378
			c0,23.162,22.265,42.007,49.632,42.007s49.632-18.845,49.632-42.007C221.889,180.589,221.886,180.461,221.881,180.329z
			 M172.257,206.691c-13.436,0-25.056-6.129-30.425-14.96c0.335,0.551,4.321,0.776,4.853,0.863
			c8.316,1.346,17.003,2.004,25.526,2.004c0.015,0,0.03,0.001,0.046,0.001s0.031-0.001,0.046-0.001
			c9.719-0.003,19.46-0.805,29.015-2.614c0.453-0.086,0.914-0.164,1.365-0.253C197.312,200.563,185.693,206.691,172.257,206.691z
			 M203.424,175.149c-10.186,2.418-20.709,3.416-31.167,3.416c-10.483,0-20.944-0.991-31.154-3.412
			c-0.522-0.124-1.031-0.258-1.544-0.387c3.499-11.453,16.851-20.016,32.698-20.016s29.199,8.563,32.698,20.017
			C204.445,174.893,203.94,175.026,203.424,175.149z"/>
	</g>
</g>
<g>
	<g>
		<path d="M501.093,225.314c-11.162-48.533-36.206-83.443-68.713-95.779c-32.505-12.334-74.405-2.828-114.955,26.083
			c-3.042,2.169-6.039,4.432-8.998,6.768c-0.891-2.829-1.935-5.482-3.132-7.896c-5.564-11.214-10.05-23.47-13.714-37.467
			c-10.304-39.358-39.246-70.798-76.964-84.551c9.078-11.977,11.137-21.417,11.382-22.692c0.428-2.221-0.104-4.521-1.461-6.33
			c-1.359-1.809-3.418-2.96-5.67-3.169c-0.273-0.026-6.803-0.616-15.078,0.098c-11.644,1.003-20.951,4.006-27.661,8.923
			c-2.278,1.67-5.461,1.671-7.74,0c-15.294-11.205-39.978-9.277-42.741-9.021c-2.252,0.21-4.312,1.36-5.67,3.169
			c-1.358,1.809-1.889,4.108-1.461,6.329c0.245,1.275,2.305,10.717,11.385,22.695c-17.792,6.501-33.893,17.056-47.098,30.962
			c-3.049,3.211-2.917,8.286,0.294,11.336c3.21,3.05,8.285,2.917,11.335-0.293c14.074-14.822,31.921-25.269,51.613-30.211
			c2.808-0.706,5.019-2.869,5.782-5.663c0.763-2.793-0.038-5.781-2.097-7.817c-5.417-5.355-9.009-10.434-11.354-14.533
			c7.005,0.522,15.229,2.095,20.534,5.983c7.982,5.849,18.71,5.85,26.694,0c5.271-3.862,13.502-5.434,20.521-5.964
			c-2.346,4.1-5.934,9.17-11.34,14.514c-2.059,2.035-2.861,5.023-2.097,7.817c0.763,2.793,2.973,4.957,5.781,5.663
			c37.954,9.527,67.689,38.961,77.6,76.816c3.945,15.069,8.807,28.327,14.863,40.533c1.679,3.385,3.011,7.677,3.858,12.365
			c-25.696,23.547-47.511,53.435-63.625,87.196c-0.176,0.051-0.346,0.108-0.524,0.158c-6.052,1.75-12.218,3.117-18.429,4.167
			c-0.056,0.01-0.109,0.02-0.164,0.03c-4.179,0.693-8.377,1.255-12.59,1.701c-1.414-0.718-2.844-1.42-4.288-2.105
			c-0.094-0.045-0.188-0.09-0.283-0.135c-11.383-5.377-23.534-10.53-36.338-10.53c-11.208,0-21.597,3.785-30.067,10.357
			c-35.209-6.749-60.077-22.667-72.045-46.178c-11.574-22.735-8.049-46.56-2.854-57.028c6.056-12.206,10.918-25.464,14.863-40.533
			c1.973-7.538,4.814-14.919,8.443-21.939c2.033-3.934,0.494-8.77-3.44-10.803c-3.933-2.033-8.77-0.493-10.803,3.44
			c-4.172,8.07-7.439,16.562-9.712,25.243c-3.665,13.997-8.151,26.253-13.714,37.467c-7.949,16.019-10.423,45.204,2.928,71.43
			c5.171,10.156,13.672,21.771,27.618,31.974c-11.531,15.673-20.421,34.166-25.893,54.001c-1.178,4.269,1.329,8.684,5.596,9.862
			c4.265,1.178,8.684-1.328,9.862-5.596c5.071-18.382,13.344-35.446,24.076-49.751c4.681,2.467,9.666,4.684,14.928,6.659
			c0.064,0.023,0.125,0.049,0.189,0.074c5.547,2.078,11.228,3.804,16.975,5.237c0.208,0.052,0.412,0.11,0.621,0.161
			c-3.686,5.874-6.383,12.613-7.813,19.988c-4.253,21.929,5.462,43.866,25.15,54.684c12.98,7.133,28.497,11.025,43.017,13.439
			c8.881,1.476,17.911,2.228,26.916,2.147c0.382-0.003,0.766,0.001,1.147-0.005c-0.872,0.295,0.748,14.45,0.905,15.965
			c0.01,0.097,0.019,0.195,0.029,0.291c1.686,16.106,5.694,31.209,11.928,45.039c0.067,0.15,0.134,0.298,0.201,0.447
			c4.264,9.37,9.602,18.289,15.929,26.413c0.009,0.012,0.017,0.023,0.027,0.035c-17.238,8.376-37.807,12.614-61.296,12.614
			c-16.073,0-30.678-1.943-43.764-5.798c-0.544-0.235-1.116-0.405-1.703-0.515c-17.871-5.548-32.844-14.735-44.754-27.514
			c-3.111-3.337-5.975-6.9-8.592-10.659c-0.048-0.076-0.089-0.155-0.14-0.229c-9.546-13.81-15.694-30.118-18.272-48.472
			c-0.017-0.122-0.056-0.235-0.078-0.356c-1.282-9.396-1.592-19.237-0.876-29.392c0.312-4.417-3.017-8.251-7.434-8.562
			c-4.41-0.307-8.25,3.017-8.562,7.434c-0.555,7.863-0.547,15.567-0.012,23.069c-9.309,0.128-18.941,2.919-27.903,8.104
			c-1.933,1.118-3.312,2.992-3.806,5.17c-4.767,21.056,1.38,40.84,16.041,51.63c7.197,5.297,15.998,8.097,25.454,8.097
			c5.286,0,10.63-0.859,15.953-2.537c2.051,2.638,4.215,5.187,6.494,7.633c12.946,13.892,29.325,24.201,48.507,30.713l5.501,18.551
			H111.48c-4.428,0-8.018,3.59-8.018,8.018s3.59,8.018,8.018,8.018c0,0,23.544,0,23.599,0h38.492c4.428,0,8.018-3.59,8.018-8.018
			s-3.59-8.018-8.018-8.018h-32.532l-4.059-13.69c11.054,2.221,22.841,3.358,35.279,3.358c15.139,0,29.246-1.628,42.232-4.86
			l4.505,15.192h-12.832c-4.428,0-8.018,3.59-8.018,8.018s3.59,8.018,8.018,8.018c0,0,23.544,0,23.599,0h38.492
			c4.428,0,8.018-3.59,8.018-8.018s-3.59-8.018-8.018-8.018H235.72l-5.918-19.955c5.107-1.921,10.002-4.132,14.685-6.624
			c13.263,13.237,29.315,23.596,47.378,30.451c15.511,5.886,31.743,8.83,47.911,8.829c15.863,0,31.665-2.836,46.642-8.508
			c4.141-1.568,6.227-6.196,4.658-10.337c-1.568-4.141-6.196-6.227-10.337-4.658c-26.578,10.067-56.121,9.953-83.185-0.318
			c-17.674-6.707-33.143-17.212-45.484-30.745c-0.045-0.052-0.084-0.11-0.132-0.161c-4.06-4.462-7.736-9.206-11.027-14.208
			c-0.077-0.117-0.152-0.235-0.229-0.352c-11.946-18.311-18.703-40.07-19.915-64.195c-0.015-0.305-0.032-0.608-0.045-0.914
			c-0.09-2.115-0.149-4.232-0.156-6.349c0-0.109,0.001-0.219,0.001-0.328c13.403-1.815,25.606-5.646,36.147-11.351
			c0.252-0.136,0.509-0.267,0.759-0.406c2.374-1.316,4.705-2.731,6.938-4.276c2.773-1.908,4.058-5.344,3.22-8.603
			c-4.731-18.382-16.08-35.935-32.17-50.868c0.004-0.011,0.008-0.022,0.012-0.033c0.21-0.565,0.417-1.118,0.621-1.659
			c0.024-0.062,0.049-0.124,0.073-0.186c2.426-6.379,5.118-12.775,8.013-19.02c15.891-34.288,38.193-64.746,64.494-88.082
			c0.143-0.127,0.269-0.267,0.403-0.403c5.703-5.018,11.596-9.706,17.658-14.029c35.582-25.369,72.949-34.397,99.957-24.147
			c27.008,10.249,48.979,41.792,58.773,84.38c10.817,47.035,6.227,100.736-12.927,151.209
			c-15.407,40.601-36.961,70.943-64.066,90.184c-3.61,2.562-4.46,7.568-1.896,11.179c2.564,3.611,7.568,4.459,11.179,1.896
			c29.745-21.114,53.222-53.941,69.777-97.57C507.796,332.402,512.612,275.404,501.093,225.314z M47.857,425.57c0,0-0.001,0-0.002,0
			c-6.096,0-11.461-1.675-15.947-4.976c-8.695-6.4-12.604-18.325-10.569-31.678c6.24-3.038,12.702-4.516,18.746-4.259
			c2.658,14.564,7.483,28.127,14.333,40.272C52.191,425.353,49.989,425.57,47.857,425.57z M223.025,279.764
			c-0.016,0.041-0.032,0.082-0.048,0.124c-0.189,0.474-0.377,0.947-0.563,1.421c-0.506-0.372-1.025-0.732-1.537-1.1
			C221.596,280.064,222.314,279.916,223.025,279.764z M250.407,341.412c-0.103,0.058-0.211,0.112-0.314,0.17
			c-9.858,5.52-20.809,8.676-31.979,10.154c-18.939,2.507-38.357,0.411-56.644-4.921c-9.798-2.856-20.122-6.09-27.773-13.176
			c-8.77-8.121-11.895-20.481-9.65-32.058c1.632-8.42,5.899-16.455,12.227-22.283c13.587-12.511,30.666-8.936,46.017-2.377
			C210.992,289.183,239.649,311.02,250.407,341.412z"/>
	</g>
</g>
</svg>