<?xml version="1.0" standalone="no"?>
<!DOCTYPE svg PUBLIC "-//W3C//DTD SVG 20010904//EN"
 "http://www.w3.org/TR/2001/REC-SVG-20010904/DTD/svg10.dtd">
<svg version="1.0" xmlns="http://www.w3.org/2000/svg"
 width="1200.000000pt" height="1200.000000pt" viewBox="0 0 1200.000000 1200.000000"
 preserveAspectRatio="xMidYMid meet">
<metadata>
Created by potrace 1.14, written by Peter Selinger 2001-2017
</metadata>
<g transform="translate(0.000000,1200.000000) scale(0.100000,-0.100000)"
fill="#000000" stroke="none">
<path d="M8879 11016 c-96 -34 -158 -128 -159 -238 0 -32 -3 -58 -8 -58 -4 0
-43 15 -86 34 -162 71 -288 70 -369 -2 -56 -52 -97 -141 -97 -214 l0 -58 -43
0 c-198 0 -395 -170 -357 -309 12 -45 67 -99 111 -108 16 -3 29 -8 29 -12 0
-3 -18 -18 -39 -33 -61 -44 -232 -210 -309 -301 -155 -184 -263 -339 -487
-697 -324 -517 -459 -701 -690 -939 -617 -634 -1393 -1021 -2265 -1127 -219
-27 -639 -25 -864 4 -575 75 -996 222 -1557 544 l-97 55 6 -41 c3 -22 8 -43
11 -46 3 -3 7 -38 9 -79 4 -92 47 -264 101 -402 39 -100 143 -295 187 -352 20
-24 20 -29 8 -89 -18 -84 -17 -266 1 -369 35 -202 143 -430 286 -604 50 -61
235 -241 285 -277 31 -22 47 -42 53 -67 125 -489 253 -786 499 -1166 441 -680
1107 -1183 1872 -1414 176 -54 411 -105 580 -128 194 -26 690 -26 875 0 559
79 1058 282 1490 605 441 331 771 729 1000 1204 184 383 281 786 316 1318 13
194 6 839 -11 1095 -20 285 -13 612 20 1000 16 183 11 172 73 167 126 -10 254
55 303 154 23 47 27 72 34 192 9 160 15 177 100 269 69 74 84 113 77 201 -4
53 -15 85 -54 161 l-48 94 -225 77 c-192 65 -628 226 -638 236 -20 17 86 134
171 188 186 119 446 159 668 102 53 -13 115 -34 138 -45 l41 -22 22 48 c17 38
22 68 22 143 1 109 -13 167 -62 262 -49 96 -95 145 -253 264 -226 172 -286
253 -353 483 -20 68 -48 145 -61 172 -56 110 -158 160 -256 125z m-161 -881
c80 -19 113 -36 169 -88 37 -34 103 -117 103 -129 0 -2 -55 -1 -123 0 -282 8
-501 -71 -569 -207 -52 -102 -34 -176 69 -296 54 -62 251 -246 339 -315 17
-14 62 -50 100 -81 38 -30 97 -75 132 -98 34 -24 62 -47 62 -50 0 -3 -11 -17
-25 -29 -40 -38 -115 -143 -145 -203 -127 -251 -47 -544 179 -658 l61 -32 -7
-132 c-9 -148 -10 -571 -3 -1407 5 -560 3 -641 -26 -918 -81 -786 -384 -1430
-924 -1961 -238 -234 -506 -424 -805 -571 -364 -180 -711 -277 -1125 -315 -84
-8 -437 -8 -520 0 -128 12 -306 36 -380 51 -662 134 -1221 421 -1687 868 -261
251 -468 517 -650 836 -132 232 -256 520 -327 759 l-16 53 28 -18 c122 -81
246 -154 347 -204 132 -65 181 -82 173 -59 -5 15 -150 140 -273 234 -505 387
-736 685 -829 1069 -22 90 -44 256 -34 256 2 0 48 -44 103 -98 155 -153 328
-271 498 -340 94 -38 87 -20 -17 41 -417 249 -705 631 -822 1087 -38 151 -41
148 74 83 512 -291 1063 -449 1685 -485 465 -26 917 35 1372 187 829 276 1530
819 2007 1555 41 63 133 212 203 330 263 442 397 648 524 805 83 103 224 248
320 328 83 69 85 71 220 109 224 63 255 68 371 63 58 -3 133 -12 168 -20z
m-7091 -2727 c-3 -7 -5 -2 -5 12 0 14 2 19 5 13 2 -7 2 -19 0 -25z"/>
<path d="M7929 6935 c-17 -25 -43 -348 -54 -660 -3 -88 -7 -194 -10 -235 -3
-41 -7 -118 -10 -170 -35 -574 -129 -991 -304 -1340 -271 -541 -678 -836
-1315 -950 -164 -30 -310 -41 -521 -41 -632 -1 -1158 195 -1542 574 -94 93
-124 111 -55 35 28 -32 31 -37 10 -22 -31 22 -61 68 -51 78 4 4 3 10 -3 14
-14 10 -87 112 -83 117 2 2 42 -1 89 -5 536 -53 1019 -27 1530 81 198 41 547
149 509 157 -9 2 -108 -15 -220 -37 -427 -83 -749 -117 -1134 -119 -273 -2
-305 3 -395 63 -182 120 -362 261 -518 404 -80 74 -99 100 -65 87 9 -4 75 -14
147 -23 162 -21 632 -24 776 -5 198 26 250 35 250 42 0 5 -13 7 -29 5 -36 -5
-52 13 -54 57 -2 27 2 34 20 36 17 3 23 -3 28 -28 8 -36 41 -70 68 -70 39 0
285 63 422 107 167 54 323 119 423 176 67 38 95 65 55 53 -10 -2 -94 -27 -188
-55 -490 -144 -860 -201 -1312 -201 l-132 0 -64 44 c-124 85 -407 311 -407
325 0 3 75 5 167 5 577 -5 1157 129 1673 385 186 93 430 249 403 258 -7 3 -74
-24 -150 -58 -505 -226 -926 -348 -1413 -409 -200 -25 -618 -33 -840 -17 -280
20 -286 20 -270 4 53 -52 381 -317 528 -426 56 -42 97 -78 92 -79 -18 -6 -277
38 -464 79 -99 21 -181 39 -183 39 -3 0 2 -6 9 -13 7 -8 51 -56 98 -108 225
-250 421 -424 661 -584 61 -41 85 -52 95 -44 13 11 54 -4 54 -20 0 -4 -24 -31
-53 -58 -44 -42 -58 -50 -80 -46 -15 3 -27 7 -27 8 0 5 74 78 97 95 10 8 14
12 7 7 -11 -7 -323 33 -408 53 -23 5 -44 10 -49 10 -4 0 11 -35 35 -77 213
-394 536 -683 965 -865 636 -270 1535 -247 2138 54 377 188 660 503 840 934
139 330 213 697 233 1149 16 377 2 1263 -19 1230z m-2749 -1855 c0 -35 -4 -42
-26 -51 -15 -5 -28 -8 -29 -7 -1 2 0 20 3 41 4 34 16 48 50 56 1 1 2 -17 2
-39z m-131 -29 c-48 -53 -60 -59 -79 -36 -11 13 -8 20 15 45 16 16 41 31 59
33 17 2 35 5 40 5 5 1 -11 -20 -35 -47z m-234 -80 c13 -5 0 -10 -45 -14 -71
-6 -86 -3 -49 12 29 12 67 12 94 2z m-514 -461 c14 0 6 -24 -14 -39 -16 -11
-21 -11 -35 2 -13 13 -13 19 -2 32 7 9 20 13 27 10 8 -3 19 -5 24 -5z m168
-114 c2 -4 7 -2 12 5 7 11 9 11 9 1 0 -7 5 -10 10 -7 11 7 40 -11 40 -24 0 -3
-7 -15 -15 -25 -14 -18 -17 -17 -72 39 -52 53 -54 57 -23 39 19 -10 37 -23 39
-28z m-158 -23 c22 -21 39 -40 39 -44 0 -3 -15 -5 -34 -6 -45 -1 -97 47 -76
72 18 22 28 19 71 -22z m3300 20 c13 -16 12 -17 -3 -4 -17 13 -22 21 -14 21 2
0 10 -8 17 -17z m-3590 -238 c14 -4 56 -37 93 -74 66 -66 67 -69 51 -88 -17
-20 -19 -19 -94 56 -42 42 -85 87 -96 100 l-20 24 20 -6 c11 -3 32 -9 46 -12z"/>
</g>
</svg>
